<svg width="907.1px" height="161.1px" xmlns="http://www.w3.org/2000/svg" viewBox="-203.54249267578126 -5.559999084472651 907.0849853515625 161.1199981689453" style="background: rgb(109, 78, 62)" preserveAspectRatio="xMidYMid"><defs><filter id="editing-metal-beveled"><feGaussianBlur stdDeviation="4" in="SourceAlpha" result="blur"></feGaussianBlur><feSpecularLighting surfaceScale="5" specularConstant="0.8" specularExponent="7.5" lighting-color="#cfb29a" in="blur" result="specular"><fePointLight x="-250" y="-50" z="300"></fePointLight></feSpecularLighting><feComposite operator="in" in="specular" in2="SourceAlpha" result="comp"></feComposite><feComposite in="SourceGraphic" in2="comp" operator="arithmetic" k1="0" k2="1" k3="1" k4="0"></feComposite></filter></defs><g transform="matrix(1,0,0,1,0,0)" filter="url(#editing-metal-beveled)"><g transform="matrix(1.3,0,0,1.2,-224,144.6)"><path d="M 42.8 -26.9 L 23.3 -26.9 L 34.7 -85.6 L 54.2 -85.6 L 42.8 -26.9 Z M 120.3 -25.1 L 120.3 -25.1 L 120.3 -25.1 Q 109.5 -25.1 109.5 -33.5 L 109.5 -33.5 L 109.5 -33.5 Q 109.5 -37.1 111.1 -44.2 L 111.1 -44.2 L 111.1 -44.2 Q 112.6 -51.3 113.1 -54.1 L 113.1 -54.1 L 113.1 -54.1 Q 114.4 -60.6 114.4 -62.7 L 114.4 -62.7 L 114.4 -62.7 Q 114.4 -67.2 111 -67.2 L 111 -67.2 L 111 -67.2 Q 108.8 -67.2 106.7 -64.2 L 106.7 -64.2 L 106.7 -64.2 Q 104.5 -61.1 103.5 -54.9 L 103.5 -54.9 L 98 -26.9 L 80.7 -25.1 L 85.5 -49.3 L 85.5 -49.3 Q 86.3 -53.3 87 -57.9 L 87 -57.9 L 87 -57.9 Q 87.7 -62.4 87.7 -63.1 L 87.7 -63.1 L 87.7 -63.1 Q 87.7 -67.2 84.7 -67.2 L 84.7 -67.2 L 84.7 -67.2 Q 82.6 -67.2 80.4 -64.2 L 80.4 -64.2 L 80.4 -64.2 Q 78.2 -61.2 76.9 -54.9 L 76.9 -54.9 L 71.5 -26.9 L 54 -25.1 L 63.3 -72.3 L 77.8 -74.1 L 76.3 -65.1 L 76.3 -65.1 Q 78.6 -69.9 82.9 -72 L 82.9 -72 L 82.9 -72 Q 87.2 -74.1 93.8 -74.1 L 93.8 -74.1 L 93.8 -74.1 Q 97.7 -74.1 100.2 -72.2 L 100.2 -72.2 L 100.2 -72.2 Q 102.6 -70.3 103.4 -67.3 L 103.4 -67.3 L 103.4 -67.3 Q 105 -70.4 108.8 -72.3 L 108.8 -72.3 L 108.8 -72.3 Q 112.7 -74.1 117.5 -74.1 L 117.5 -74.1 L 117.5 -74.1 Q 122.2 -74.1 124.6 -73.1 L 124.6 -73.1 L 124.6 -73.1 Q 126.9 -72 128.4 -70.3 L 128.4 -70.3 L 128.4 -70.3 Q 130.8 -67.2 130.8 -61.5 L 130.8 -61.5 L 130.8 -61.5 Q 130.8 -55.9 128.4 -44.3 L 128.4 -44.3 L 128.4 -44.3 Q 127.1 -38.6 127.1 -36.5 L 127.1 -36.5 L 127.1 -36.5 Q 127.1 -34.4 128.3 -33.1 L 128.3 -33.1 L 128.3 -33.1 Q 129.5 -31.9 131.3 -31.7 L 131.3 -31.7 L 131.3 -31.7 Q 130.4 -28.7 127.3 -26.9 L 127.3 -26.9 L 127.3 -26.9 Q 124.3 -25.1 120.3 -25.1 Z M 142 -29.6 L 142 -29.6 L 142 -29.6 Q 139.9 -31.9 139 -35.5 L 139 -35.5 L 139 -35.5 Q 138.1 -39.2 138.1 -45.1 L 138.1 -45.1 L 138.1 -45.1 Q 138.1 -51.1 140.1 -56.5 L 140.1 -56.5 L 140.1 -56.5 Q 142.2 -62 145.9 -65.9 L 145.9 -65.9 L 145.9 -65.9 Q 153.6 -74.1 166.2 -74.1 L 166.2 -74.1 L 166.2 -74.1 Q 170.7 -74.1 174 -72.6 L 174 -72.6 L 189.2 -74.1 L 182.7 -39.4 L 182.7 -39.4 Q 182.4 -38.3 182.4 -36.3 L 182.4 -36.3 L 182.4 -36.3 Q 182.4 -34.4 183.6 -33.1 L 183.6 -33.1 L 183.6 -33.1 Q 184.8 -31.9 186.6 -31.7 L 186.6 -31.7 L 186.6 -31.7 Q 185.7 -28.7 182.4 -26.9 L 182.4 -26.9 L 182.4 -26.9 Q 179.2 -25.1 175.5 -25.1 L 175.5 -25.1 L 175.5 -25.1 Q 171.9 -25.1 169.4 -26.5 L 169.4 -26.5 L 169.4 -26.5 Q 167 -27.9 166.3 -30.2 L 166.3 -30.2 L 166.3 -30.2 Q 164.9 -28 161.8 -26.5 L 161.8 -26.5 L 161.8 -26.5 Q 158.8 -25.1 154.8 -25.1 L 154.8 -25.1 L 154.8 -25.1 Q 150.7 -25.1 147.4 -26.2 L 147.4 -26.2 L 147.4 -26.2 Q 144.1 -27.3 142 -29.6 Z M 160.8 -65.7 L 160.8 -65.7 L 160.8 -65.7 Q 159.8 -64.1 158.9 -61.4 L 158.9 -61.4 L 158.9 -61.4 Q 158 -58.7 156.5 -51.4 L 156.5 -51.4 L 156.5 -51.4 Q 155.1 -44.2 155.1 -39 L 155.1 -39 L 155.1 -39 Q 155.1 -33.8 155.9 -32.3 L 155.9 -32.3 L 155.9 -32.3 Q 156.7 -30.8 158.1 -30.8 L 158.1 -30.8 L 158.1 -30.8 Q 160.9 -30.8 163 -33.5 L 163 -33.5 L 163 -33.5 Q 165.1 -36.2 165.9 -41.1 L 165.9 -41.1 L 170.6 -67.1 L 170.6 -67.1 Q 168.8 -68.7 166.6 -68.7 L 166.6 -68.7 L 166.6 -68.7 Q 164.4 -68.7 163.1 -68 L 163.1 -68 L 163.1 -68 Q 161.8 -67.3 160.8 -65.7 Z M 200 -64.1 L 200 -64.1 L 200 -64.1 Q 203 -68.4 207.6 -71.2 L 207.6 -71.2 L 207.6 -71.2 Q 212.2 -74.1 217.8 -74.1 L 217.8 -74.1 L 217.8 -74.1 Q 223.4 -74.1 226.1 -72.3 L 226.1 -72.3 L 243.5 -74.1 L 237.5 -39.9 L 237.5 -39.9 Q 234.4 -22.5 227.8 -15.6 L 227.8 -15.6 L 227.8 -15.6 Q 221.5 -9.1 209.2 -9.1 L 209.2 -9.1 L 209.2 -9.1 Q 199.8 -9.1 194.5 -12 L 194.5 -12 L 194.5 -12 Q 189.2 -15 189.2 -19.9 L 189.2 -19.9 L 189.2 -19.9 Q 189.2 -23.5 191.9 -25.6 L 191.9 -25.6 L 191.9 -25.6 Q 194.7 -27.7 198.9 -27.7 L 198.9 -27.7 L 198.9 -27.7 Q 202.7 -27.7 205.5 -26 L 205.5 -26 L 205.5 -26 Q 207.2 -25.1 208 -23.9 L 208 -23.9 L 208 -23.9 Q 206 -22.1 206 -19.2 L 206 -19.2 L 206 -19.2 Q 206 -15.3 209.5 -15.3 L 209.5 -15.3 L 209.5 -15.3 Q 215.5 -15.3 218.9 -29.4 L 218.9 -29.4 L 218.9 -29.4 Q 219.9 -33.2 220.7 -37.1 L 220.7 -37.1 L 220.7 -37.1 Q 216.7 -32.2 207.6 -32.2 L 207.6 -32.2 L 207.6 -32.2 Q 201.3 -32.2 197.6 -35.2 L 197.6 -35.2 L 197.6 -35.2 Q 194 -38.2 194 -45.3 L 194 -45.3 L 194 -45.3 Q 194 -49.8 195.5 -54.8 L 195.5 -54.8 L 195.5 -54.8 Q 197 -59.8 200 -64.1 Z M 211.6 -45.1 L 211.6 -45.1 L 211.6 -45.1 Q 211.6 -39 214.7 -39 L 214.7 -39 L 214.7 -39 Q 216.8 -39 218.9 -41.3 L 218.9 -41.3 L 218.9 -41.3 Q 220.5 -43.2 221.1 -46 L 221.1 -46 L 225.6 -68.8 L 225.6 -68.8 Q 225.2 -68.9 224.8 -69.1 L 224.8 -69.1 L 224.8 -69.1 Q 223.9 -69.4 222.7 -69.4 L 222.7 -69.4 L 222.7 -69.4 Q 217.3 -69.4 214.1 -60.5 L 214.1 -60.5 L 214.1 -60.5 Q 211.6 -53.6 211.6 -45.1 Z M 283.1 -41.9 L 283.1 -41.9 L 283.1 -41.9 Q 285.3 -40.4 285.3 -37.1 L 285.3 -37.1 L 285.3 -37.1 Q 285.3 -33.8 283.6 -31.6 L 283.6 -31.6 L 283.6 -31.6 Q 281.9 -29.5 279.1 -28.1 L 279.1 -28.1 L 279.1 -28.1 Q 273.4 -25.1 267.3 -25.1 L 267.3 -25.1 L 267.3 -25.1 Q 261.2 -25.1 257.6 -26.5 L 257.6 -26.5 L 257.6 -26.5 Q 253.9 -27.8 251.5 -30.3 L 251.5 -30.3 L 251.5 -30.3 Q 246.8 -35 246.8 -43.6 L 246.8 -43.6 L 246.8 -43.6 Q 246.8 -57.1 254.1 -65.3 L 254.1 -65.3 L 254.1 -65.3 Q 262 -74.1 275.6 -74.1 L 275.6 -74.1 L 275.6 -74.1 Q 284 -74.1 288.2 -70.5 L 288.2 -70.5 L 288.2 -70.5 Q 291.3 -67.8 291.3 -63.5 L 291.3 -63.5 L 291.3 -63.5 Q 291.3 -47.8 264.3 -47.8 L 264.3 -47.8 L 264.3 -47.8 Q 263.9 -45.5 263.9 -43.5 L 263.9 -43.5 L 263.9 -43.5 Q 263.9 -39.5 265.7 -37.9 L 265.7 -37.9 L 265.7 -37.9 Q 267.6 -36.3 270.9 -36.3 L 270.9 -36.3 L 270.9 -36.3 Q 274.3 -36.3 277.9 -37.9 L 277.9 -37.9 L 277.9 -37.9 Q 281.5 -39.5 283.1 -41.9 Z M 264.9 -51.6 L 264.9 -51.6 L 264.9 -51.6 Q 271.2 -51.6 274.9 -55.6 L 274.9 -55.6 L 274.9 -55.6 Q 278.5 -59.3 278.5 -65.3 L 278.5 -65.3 L 278.5 -65.3 Q 278.5 -67.3 277.8 -68.4 L 277.8 -68.4 L 277.8 -68.4 Q 277 -69.5 275.5 -69.5 L 275.5 -69.5 L 275.5 -69.5 Q 274 -69.5 272.7 -69 L 272.7 -69 L 272.7 -69 Q 271.4 -68.4 270.1 -66.4 L 270.1 -66.4 L 270.1 -66.4 Q 266.8 -62 264.9 -51.6 Z M 321 -58.1 L 321 -58.1 L 321 -58.1 Q 322.2 -61.4 322.2 -64.3 L 322.2 -64.3 L 322.2 -64.3 Q 322.2 -69.5 317.9 -69.5 L 317.9 -69.5 L 317.9 -69.5 Q 315.7 -69.5 313.9 -67.5 L 313.9 -67.5 L 313.9 -67.5 Q 312.1 -65.5 312.1 -63 L 312.1 -63 L 312.1 -63 Q 312.1 -61.3 313.5 -59.8 L 313.5 -59.8 L 313.5 -59.8 Q 315.5 -57.9 320.8 -54.7 L 320.8 -54.7 L 320.8 -54.7 Q 326 -51.5 328 -48.8 L 328 -48.8 L 328 -48.8 Q 330 -46.2 330 -42.6 L 330 -42.6 L 330 -42.6 Q 330 -39 328.3 -35.7 L 328.3 -35.7 L 328.3 -35.7 Q 326.6 -32.4 323.5 -30.1 L 323.5 -30.1 L 323.5 -30.1 Q 316.8 -25.1 306.1 -25.1 L 306.1 -25.1 L 306.1 -25.1 Q 300.3 -25.1 295.9 -28.2 L 295.9 -28.2 L 295.9 -28.2 Q 291.4 -31.1 291.4 -34.6 L 291.4 -34.6 L 291.4 -34.6 Q 291.4 -38 294 -40.1 L 294 -40.1 L 294 -40.1 Q 296.5 -42.1 300.2 -42.1 L 300.2 -42.1 L 300.2 -42.1 Q 304 -42.1 306.3 -40.7 L 306.3 -40.7 L 306.3 -40.7 Q 305.1 -37.8 305.1 -35.8 L 305.1 -35.8 L 305.1 -35.8 Q 305.1 -29.9 310.1 -29.9 L 310.1 -29.9 L 310.1 -29.9 Q 312.2 -29.9 313.7 -31.3 L 313.7 -31.3 L 313.7 -31.3 Q 315.1 -32.6 315.1 -34.9 L 315.1 -34.9 L 315.1 -34.9 Q 315.1 -39.5 307.4 -44.3 L 307.4 -44.3 L 307.4 -44.3 Q 301.2 -48.4 299.8 -50 L 299.8 -50 L 299.8 -50 Q 297.4 -52.8 297.4 -56.4 L 297.4 -56.4 L 297.4 -56.4 Q 297.4 -59.9 299.1 -63.3 L 299.1 -63.3 L 299.1 -63.3 Q 300.8 -66.7 303.9 -69.1 L 303.9 -69.1 L 303.9 -69.1 Q 310.4 -74.1 321.7 -74.1 L 321.7 -74.1 L 321.7 -74.1 Q 327.5 -74.1 330.9 -71.8 L 330.9 -71.8 L 330.9 -71.8 Q 334.3 -69.4 334.3 -65.5 L 334.3 -65.5 L 334.3 -65.5 Q 334.3 -61.6 332 -59.4 L 332 -59.4 L 332 -59.4 Q 329.6 -57.2 325.3 -57.2 L 325.3 -57.2 L 325.3 -57.2 Q 322.4 -57.2 321 -58.1 Z M 392 -55.6 L 410 -57.2 L 410 -57.2 Q 403.6 -43.1 403.6 -26.8 L 403.6 -26.8 L 403.6 -26.8 Q 401.2 -25.1 397.6 -25.1 L 397.6 -25.1 L 397.6 -25.1 Q 394.1 -25.1 391.9 -26.8 L 391.9 -26.8 L 391.9 -26.8 Q 389.7 -28.4 389.2 -30.1 L 389.2 -30.1 L 389.2 -30.1 Q 387 -27.8 383.4 -26.5 L 383.4 -26.5 L 383.4 -26.5 Q 379.8 -25.1 376 -25.1 L 376 -25.1 L 376 -25.1 Q 372.1 -25.1 368.8 -26.4 L 368.8 -26.4 L 368.8 -26.4 Q 365.5 -27.6 362.9 -30.4 L 362.9 -30.4 L 362.9 -30.4 Q 357.2 -36.4 357.2 -47.9 L 357.2 -47.9 L 357.2 -47.9 Q 357.2 -65.7 366.7 -76.4 L 366.7 -76.4 L 366.7 -76.4 Q 376.5 -87.4 393.9 -87.4 L 393.9 -87.4 L 393.9 -87.4 Q 405.9 -87.4 410.1 -81.2 L 410.1 -81.2 L 410.1 -81.2 Q 411.5 -79.2 411.5 -76.9 L 411.5 -76.9 L 411.5 -76.9 Q 411.5 -74.5 410.5 -72.5 L 410.5 -72.5 L 410.5 -72.5 Q 409.4 -70.5 407.8 -68.9 L 407.8 -68.9 L 407.8 -68.9 Q 404 -65.4 399.3 -65.4 L 399.3 -65.4 L 399.3 -65.4 Q 397.4 -65.4 395.6 -66 L 395.6 -66 L 395.6 -66 Q 396 -68.6 396 -71.8 L 396 -71.8 L 396 -71.8 Q 396 -74.9 395.8 -76.3 L 395.8 -76.3 L 395.8 -76.3 Q 395.5 -77.7 395 -78.9 L 395 -78.9 L 395 -78.9 Q 393.9 -81.3 391.3 -81.3 L 391.3 -81.3 L 391.3 -81.3 Q 388.8 -81.3 386 -78.6 L 386 -78.6 L 386 -78.6 Q 383.2 -75.9 381 -71.4 L 381 -71.4 L 381 -71.4 Q 376.1 -61.4 376.1 -49.4 L 376.1 -49.4 L 376.1 -49.4 Q 376.1 -43.9 378.2 -40 L 378.2 -40 L 378.2 -40 Q 380.5 -35.7 384.6 -35.7 L 384.6 -35.7 L 384.6 -35.7 Q 386 -35.7 387.3 -36.4 L 387.3 -36.4 L 387.3 -36.4 Q 388.6 -37.1 389.1 -37.7 L 389.1 -37.7 L 392 -55.6 Z M 418.2 -29.6 L 418.2 -29.6 L 418.2 -29.6 Q 416.1 -31.9 415.2 -35.5 L 415.2 -35.5 L 415.2 -35.5 Q 414.2 -39.2 414.2 -45.1 L 414.2 -45.1 L 414.2 -45.1 Q 414.2 -51.1 416.3 -56.5 L 416.3 -56.5 L 416.3 -56.5 Q 418.3 -62 422.1 -65.9 L 422.1 -65.9 L 422.1 -65.9 Q 429.7 -74.1 442.4 -74.1 L 442.4 -74.1 L 442.4 -74.1 Q 446.9 -74.1 450.2 -72.6 L 450.2 -72.6 L 465.4 -74.1 L 458.8 -39.4 L 458.8 -39.4 Q 458.6 -38.3 458.6 -36.3 L 458.6 -36.3 L 458.6 -36.3 Q 458.6 -34.4 459.8 -33.1 L 459.8 -33.1 L 459.8 -33.1 Q 461 -31.9 462.7 -31.7 L 462.7 -31.7 L 462.7 -31.7 Q 461.9 -28.7 458.6 -26.9 L 458.6 -26.9 L 458.6 -26.9 Q 455.4 -25.1 451.7 -25.1 L 451.7 -25.1 L 451.7 -25.1 Q 448.1 -25.1 445.6 -26.5 L 445.6 -26.5 L 445.6 -26.5 Q 443.2 -27.9 442.5 -30.2 L 442.5 -30.2 L 442.5 -30.2 Q 441 -28 438 -26.5 L 438 -26.5 L 438 -26.5 Q 435 -25.1 430.9 -25.1 L 430.9 -25.1 L 430.9 -25.1 Q 426.9 -25.1 423.6 -26.2 L 423.6 -26.2 L 423.6 -26.2 Q 420.3 -27.3 418.2 -29.6 Z M 437 -65.7 L 437 -65.7 L 437 -65.7 Q 436 -64.1 435.1 -61.4 L 435.1 -61.4 L 435.1 -61.4 Q 434.2 -58.7 432.7 -51.4 L 432.7 -51.4 L 432.7 -51.4 Q 431.2 -44.2 431.2 -39 L 431.2 -39 L 431.2 -39 Q 431.2 -33.8 432 -32.3 L 432 -32.3 L 432 -32.3 Q 432.8 -30.8 434.3 -30.8 L 434.3 -30.8 L 434.3 -30.8 Q 437.1 -30.8 439.2 -33.5 L 439.2 -33.5 L 439.2 -33.5 Q 441.3 -36.2 442.1 -41.1 L 442.1 -41.1 L 446.8 -67.1 L 446.8 -67.1 Q 444.9 -68.7 442.8 -68.7 L 442.8 -68.7 L 442.8 -68.7 Q 440.6 -68.7 439.3 -68 L 439.3 -68 L 439.3 -68 Q 438 -67.3 437 -65.7 Z M 491.5 -31.8 L 491.5 -31.8 L 491.5 -31.8 Q 488.7 -25.1 479.9 -25.1 L 479.9 -25.1 L 479.9 -25.1 Q 475.5 -25.1 472.6 -28.2 L 472.6 -28.2 L 472.6 -28.2 Q 470.3 -30.8 470.3 -33.8 L 470.3 -33.8 L 470.3 -33.8 Q 470.3 -40.4 473.4 -55 L 473.4 -55 L 479.9 -89.2 L 498 -91 L 489.4 -46 L 489.4 -46 Q 487.8 -39.4 487.8 -37.1 L 487.8 -37.1 L 487.8 -37.1 Q 487.8 -32 491.5 -31.8 Z M 520.3 -31.8 L 520.3 -31.8 L 520.3 -31.8 Q 517.6 -25.1 508.8 -25.1 L 508.8 -25.1 L 508.8 -25.1 Q 504.3 -25.1 501.5 -28.2 L 501.5 -28.2 L 501.5 -28.2 Q 499.1 -30.8 499.1 -33.8 L 499.1 -33.8 L 499.1 -33.8 Q 499.1 -40.4 502.3 -55 L 502.3 -55 L 508.8 -89.2 L 526.8 -91 L 518.2 -46 L 518.2 -46 Q 516.7 -39.4 516.7 -37.1 L 516.7 -37.1 L 516.7 -37.1 Q 516.7 -32 520.3 -31.8 Z M 563.9 -41.9 L 563.9 -41.9 L 563.9 -41.9 Q 566.2 -40.4 566.2 -37.1 L 566.2 -37.1 L 566.2 -37.1 Q 566.2 -33.8 564.5 -31.6 L 564.5 -31.6 L 564.5 -31.6 Q 562.8 -29.5 560 -28.1 L 560 -28.1 L 560 -28.1 Q 554.3 -25.1 548.2 -25.1 L 548.2 -25.1 L 548.2 -25.1 Q 542 -25.1 538.4 -26.5 L 538.4 -26.5 L 538.4 -26.5 Q 534.8 -27.8 532.4 -30.3 L 532.4 -30.3 L 532.4 -30.3 Q 527.7 -35 527.7 -43.6 L 527.7 -43.6 L 527.7 -43.6 Q 527.7 -57.1 535 -65.3 L 535 -65.3 L 535 -65.3 Q 542.8 -74.1 556.5 -74.1 L 556.5 -74.1 L 556.5 -74.1 Q 564.9 -74.1 569.1 -70.5 L 569.1 -70.5 L 569.1 -70.5 Q 572.2 -67.8 572.2 -63.5 L 572.2 -63.5 L 572.2 -63.5 Q 572.2 -47.8 545.2 -47.8 L 545.2 -47.8 L 545.2 -47.8 Q 544.8 -45.5 544.8 -43.5 L 544.8 -43.5 L 544.8 -43.5 Q 544.8 -39.5 546.6 -37.9 L 546.6 -37.9 L 546.6 -37.9 Q 548.4 -36.3 551.8 -36.3 L 551.8 -36.3 L 551.8 -36.3 Q 555.2 -36.3 558.8 -37.9 L 558.8 -37.9 L 558.8 -37.9 Q 562.4 -39.5 563.9 -41.9 Z M 545.8 -51.6 L 545.8 -51.6 L 545.8 -51.6 Q 552.1 -51.6 555.7 -55.6 L 555.7 -55.6 L 555.7 -55.6 Q 559.4 -59.3 559.4 -65.3 L 559.4 -65.3 L 559.4 -65.3 Q 559.4 -67.3 558.6 -68.4 L 558.6 -68.4 L 558.6 -68.4 Q 557.9 -69.5 556.4 -69.5 L 556.4 -69.5 L 556.4 -69.5 Q 554.9 -69.5 553.6 -69 L 553.6 -69 L 553.6 -69 Q 552.3 -68.4 550.9 -66.4 L 550.9 -66.4 L 550.9 -66.4 Q 547.6 -62 545.8 -51.6 Z M 603.1 -51.9 L 603.1 -51.9 L 603.1 -51.9 Q 606.3 -57.6 606.3 -63.4 L 606.3 -63.4 L 606.3 -63.4 Q 606.3 -67.2 603.5 -67.2 L 603.5 -67.2 L 603.5 -67.2 Q 601.4 -67.2 599.2 -63.6 L 599.2 -63.6 L 599.2 -63.6 Q 596.9 -59.9 596.2 -55.2 L 596.2 -55.2 L 591.5 -26.9 L 573.1 -25.1 L 582.2 -72.3 L 596.9 -74.1 L 595.3 -65.1 L 595.3 -65.1 Q 599.6 -74.1 609.4 -74.1 L 609.4 -74.1 L 609.4 -74.1 Q 614.6 -74.1 617.4 -71.4 L 617.4 -71.4 L 617.4 -71.4 Q 620.2 -68.7 620.2 -63.3 L 620.2 -63.3 L 620.2 -63.3 Q 620.2 -57.8 616.6 -54.3 L 616.6 -54.3 L 616.6 -54.3 Q 613 -50.8 606.8 -50.8 L 606.8 -50.8 L 606.8 -50.8 Q 604.2 -50.8 603.1 -51.9 Z M 649.9 -37 L 649.9 -37 L 649.9 -37 Q 645.3 -32.2 636.8 -32.2 L 636.8 -32.2 L 636.8 -32.2 Q 626.2 -32.2 624 -39.9 L 624 -39.9 L 624 -39.9 Q 623.3 -42.2 623.3 -44.8 L 623.3 -44.8 L 623.3 -44.8 Q 623.3 -47.4 623.8 -50 L 623.8 -50 L 628 -72.3 L 646.1 -74.1 L 641.2 -48.2 L 641.2 -48.2 Q 641 -47 640.7 -45.8 L 640.7 -45.8 L 640.7 -45.8 Q 640.5 -44.5 640.5 -43.2 L 640.5 -43.2 L 640.5 -43.2 Q 640.5 -41.9 640.9 -41.1 L 640.9 -41.1 L 640.9 -41.1 Q 641.4 -40.3 642 -39.7 L 642 -39.7 L 642 -39.7 Q 643.1 -39 645 -39 L 645 -39 L 645 -39 Q 646.9 -39 648.5 -41.3 L 648.5 -41.3 L 648.5 -41.3 Q 650.2 -43.6 651 -47.6 L 651 -47.6 L 655.9 -72.3 L 673.4 -74.1 L 666.7 -39.1 L 666.7 -39.1 Q 663.4 -22 656.7 -15.2 L 656.7 -15.2 L 656.7 -15.2 Q 653.2 -11.8 648.7 -10.4 L 648.7 -10.4 L 648.7 -10.4 Q 644.2 -9 638.4 -9 L 638.4 -9 L 638.4 -9 Q 629.1 -9 623.7 -12 L 623.7 -12 L 623.7 -12 Q 618.4 -14.9 618.4 -19.8 L 618.4 -19.8 L 618.4 -19.8 Q 618.4 -23.4 621.2 -25.5 L 621.2 -25.5 L 621.2 -25.5 Q 623.9 -27.6 628.2 -27.6 L 628.2 -27.6 L 628.2 -27.6 Q 631.9 -27.6 634.8 -26 L 634.8 -26 L 634.8 -26 Q 636.5 -25 637.3 -23.8 L 637.3 -23.8 L 637.3 -23.8 Q 635.2 -22 635.2 -19.1 L 635.2 -19.1 L 635.2 -19.1 Q 635.2 -15.2 638.8 -15.2 L 638.8 -15.2 L 638.8 -15.2 Q 644.7 -15.2 648 -28.7 L 648 -28.7 L 648 -28.7 Q 649 -32.7 649.9 -37 Z" fill="#9d8074"></path></g></g><style>text {
  font-size: 64px;
  font-family: Arial Black;
  dominant-baseline: central;
  text-anchor: middle;
}</style></svg>